<svg xmlns="http://www.w3.org/2000/svg"  viewBox="0 0 100 100" width="500px" height="500px"><rect width="61" height="49.5" x="18.75" y="21.75" fill="#ff8405" transform="rotate(90 49.25 46.5)"/><path fill="#4343bf" d="M80,83H23V16h57V83z M29,77h45V22H29V77z"/><polygon fill="#3abcf8" points="69,87 19,87 19,22 29,22 29,77 69,77"/><path fill="#edf7f5" d="M65,65H46v-6.5c0-5.238,4.262-9.5,9.5-9.5s9.5,4.262,9.5,9.5V65z M50,61h11v-2.5 c0-3.032-2.468-5.5-5.5-5.5S50,55.468,50,58.5V61z"/><rect width="8" height="4" x="29" y="61" fill="#edf7f5"/><rect width="8" height="4" x="29" y="37" fill="#edf7f5"/><circle cx="55" cy="41" r="4" fill="#edf7f5"/><rect width="8" height="4" x="29" y="49" fill="#edf7f5"/></svg>